<svg xmlns="http://www.w3.org/2000/svg" viewBox="0 0 338.32 101.88"><defs><style>.cls-1{fill:#a3bca3;}.cls-2{fill:#fff;}</style></defs><g id="Layer_2" data-name="Layer 2"><g id="Layer_1-2" data-name="Layer 1"><polygon class="cls-1" points="244.38 100.2 184.59 100.2 184.59 96.19 194.84 95.26 232.81 95.26 244.38 96.19 244.38 100.2"/><path class="cls-2" d="M35.85,9.84l-19.27.67L11.32,39.89H0L2.29.94H89.21l1.62,39H80.18L74.93,10.51l-19-.67v81.8L74.79,93v8.08H18.6V93l17.25-1.35Z"/><path class="cls-2" d="M103.72,11.05,93.21,9.3V.94h20.08q4.59,0,11.86-.54c1.17-.08,2.56-.18,4.18-.26S132.83,0,135,0q20.34,0,28.5,5.73t8.15,17q0,10-6,16.65A25.61,25.61,0,0,1,150,47.57q13.34-.14,21,6.07t7.62,17.24q0,14-9.84,22.51t-32.88,8.49c-4.05,0-7.78-.14-11.19-.4-.9,0-2.42-.07-4.58-.21s-4.36-.2-6.6-.2H93.08V93l10.64-1.35Zm25.61,33.69h6.33q8.22,0,12.27-5.12t4-14.42q0-8.89-4.18-12.94t-13.88-4q-2.57,0-10.65.54V44.61Q124.75,44.75,129.33,44.74Zm5.79,48.65q11.46,0,16.58-5.39t5.12-15.63q0-9.84-4.65-14.09T137.41,54q-11.31,0-14.15.27V92.18Q126.37,93.39,135.12,93.39Z"/><path class="cls-2" d="M263.53,11.05,253,9.3V.94h20.07Q277.68.94,285,.4c1.17-.08,2.56-.18,4.18-.26s3.5-.14,5.66-.14q20.35,0,28.5,5.73t8.16,17q0,10-6,16.65a25.61,25.61,0,0,1-15.7,8.15q13.33-.14,21,6.07t7.61,17.24q0,14-9.84,22.51t-32.88,8.49c-4,0-7.77-.14-11.19-.4-.9,0-2.42-.07-4.58-.21s-4.36-.2-6.6-.2H252.88V93l10.65-1.35Zm25.6,33.69h6.33q8.22,0,12.27-5.12t4-14.42q0-8.89-4.18-12.94t-13.88-4q-2.55,0-10.64.54V44.61C284.05,44.7,286.08,44.74,289.13,44.74Zm5.8,48.65q11.44,0,16.57-5.39t5.12-15.63q0-9.84-4.65-14.09T297.22,54q-11.33,0-14.15.27V92.18Q286.16,93.39,294.93,93.39Z"/><path class="cls-1" d="M195.84,83.44a19.77,19.77,0,0,1-8.84-6,15.64,15.64,0,0,1-3.37-10.25,14.71,14.71,0,0,1,4.45-10.93,51.63,51.63,0,0,1,12.54-8.6,54.18,54.18,0,0,1-3.07-9.17,36.88,36.88,0,0,1-1.22-8.69,18.37,18.37,0,0,1,2.73-10.06,18.18,18.18,0,0,1,7.56-6.64,24.69,24.69,0,0,1,10.89-2.34q8,0,11.67,3.91a13.34,13.34,0,0,1,3.66,9.47A14.36,14.36,0,0,1,230,32.92a28.09,28.09,0,0,1-7,6.59q-4.11,2.73-11.23,6.54l-2.93,1.56a112.57,112.57,0,0,0,9.57,14.65,88.74,88.74,0,0,0,10.93,11.91q4.78-5.48,4.79-15.82a18,18,0,0,0-1.18-6.44c-.65-.06-1.79-.1-3.41-.1a15,15,0,0,0-3.66.49,9.76,9.76,0,0,0-2.79,1.07V47.91a7.54,7.54,0,0,1,2.49-1.47,11.34,11.34,0,0,1,4.15-.68,46.27,46.27,0,0,1,6.06.59,38.66,38.66,0,0,0,6.63.68q4.31,0,6.25-1.76T251.29,39h3.12Q254.32,46,252,49.57t-7.71,3.61c-.85,0-2-.06-3.61-.2a19,19,0,0,1,.39,3.71A28.17,28.17,0,0,1,238.84,68a25.08,25.08,0,0,1-6.3,8.78,17.74,17.74,0,0,0,6.15,3.13A19.36,19.36,0,0,0,246.41,81l-.3,3.42a27.28,27.28,0,0,1-4.24.88,37.28,37.28,0,0,1-4,.19A17.37,17.37,0,0,1,226.2,81.2a39.3,39.3,0,0,1-18.36,4.2A35.45,35.45,0,0,1,195.84,83.44Zm27.23-5A83.21,83.21,0,0,1,212,66.16q-4.25-6-9.51-14.93a31.91,31.91,0,0,0-8.11,7.12,13.77,13.77,0,0,0-2.83,8.59q0,6.75,4.64,10.4T208.63,81Q217.51,81,223.07,78.46Zm-6.39-39.53a23.55,23.55,0,0,0,6.2-6.06,13.66,13.66,0,0,0,2.44-8,12.62,12.62,0,0,0-2-7.18c-1.34-2-3.6-3-6.79-3A12.31,12.31,0,0,0,207,18.57a14.15,14.15,0,0,0-3.57,10,34,34,0,0,0,1.08,8.49,36.4,36.4,0,0,0,2.63,7.32A91.42,91.42,0,0,0,216.68,38.93Z"/></g></g></svg>