<svg xmlns="http://www.w3.org/2000/svg" viewBox="0 0 338.32 21.5"><defs><style>.cls-1{fill:#3e403c;}</style></defs><g id="Layer_2" data-name="Layer 2"><g id="Layer_1-2" data-name="Layer 1"><path class="cls-1" d="M4,21.24V1.74H0V.21H9.81V1.74H6v19.5Z"/><path class="cls-1" d="M18.33,21.24V.21h7.61V1.74H20.33V9.63H24.9v1.46H20.33v8.67H26v1.48Z"/><path class="cls-1" d="M34.92,21.24V.21h2V19.76h6v1.48Z"/><path class="cls-1" d="M51.07,21.24V.21h2V19.76h6v1.48Z"/><path class="cls-1" d="M67.27,21.24V.21h2v21Z"/><path class="cls-1" d="M84.1,21.5a5.39,5.39,0,0,1-3.29-.88,4.47,4.47,0,0,1-1.59-2.38,11.43,11.43,0,0,1-.44-3.31V6.57a11.83,11.83,0,0,1,.45-3.43A4.23,4.23,0,0,1,80.85.83,5.56,5.56,0,0,1,84.1,0a5.22,5.22,0,0,1,3,.73,4,4,0,0,1,1.55,2.06A9.7,9.7,0,0,1,89.08,6V7.24H87.21V6A10.83,10.83,0,0,0,87,3.66a2.57,2.57,0,0,0-.89-1.53,3.11,3.11,0,0,0-2-.55A3.33,3.33,0,0,0,82,2.17a3,3,0,0,0-1,1.65,11.27,11.27,0,0,0-.24,2.46v9a9.56,9.56,0,0,0,.29,2.6,2.79,2.79,0,0,0,1,1.56,3.47,3.47,0,0,0,2,.52,3,3,0,0,0,2-.58A2.77,2.77,0,0,0,87,17.75a11.41,11.41,0,0,0,.22-2.4V14h1.87v1.25a11.44,11.44,0,0,1-.42,3.25,4.17,4.17,0,0,1-1.51,2.22A5,5,0,0,1,84.1,21.5Z"/><path class="cls-1" d="M103.39,21.5a5.64,5.64,0,0,1-3.28-.82,4.32,4.32,0,0,1-1.67-2.28A10.83,10.83,0,0,1,98,15V6.31A9.9,9.9,0,0,1,98.47,3,4.28,4.28,0,0,1,100.16.78a7,7,0,0,1,6.44,0A4.24,4.24,0,0,1,108.27,3a10.16,10.16,0,0,1,.5,3.34v8.75a10.58,10.58,0,0,1-.49,3.34,4.42,4.42,0,0,1-1.64,2.27A5.56,5.56,0,0,1,103.39,21.5Zm0-1.58a3.39,3.39,0,0,0,2.1-.56,2.78,2.78,0,0,0,1-1.56,8.94,8.94,0,0,0,.28-2.32V6a8.69,8.69,0,0,0-.28-2.31,2.65,2.65,0,0,0-1-1.52,3.46,3.46,0,0,0-2.1-.54,3.6,3.6,0,0,0-2.14.54,2.66,2.66,0,0,0-1,1.52A8.3,8.3,0,0,0,100,6v9.53a8.52,8.52,0,0,0,.28,2.32,2.8,2.8,0,0,0,1,1.56A3.52,3.52,0,0,0,103.39,19.92Z"/><path class="cls-1" d="M129.8,21.24V.21h4.51a7.1,7.1,0,0,1,2.42.36,3.67,3.67,0,0,1,1.58,1.07,4.23,4.23,0,0,1,.87,1.67,8.07,8.07,0,0,1,0,4.1A4,4,0,0,1,138.39,9a2.78,2.78,0,0,1-1.61.87,3.77,3.77,0,0,1,1.92,1.16,4.68,4.68,0,0,1,1,1.89,9.12,9.12,0,0,1,.27,2.22,12.51,12.51,0,0,1-.22,2.35,5.42,5.42,0,0,1-.78,1.94,3.89,3.89,0,0,1-1.52,1.31,5.44,5.44,0,0,1-2.44.48Zm2-12h2.86a3.13,3.13,0,0,0,1.87-.48,2.49,2.49,0,0,0,.9-1.32,6.74,6.74,0,0,0,.26-2,5.29,5.29,0,0,0-.35-2.1,2.27,2.27,0,0,0-1.2-1.22,6.21,6.21,0,0,0-2.47-.39h-1.87Zm0,10.49h2.83a3,3,0,0,0,2.74-1.12,6.78,6.78,0,0,0,.69-3.48,7.81,7.81,0,0,0-.31-2.26,3,3,0,0,0-1.06-1.54,3.26,3.26,0,0,0-2-.56h-2.88Z"/><path class="cls-1" d="M149,21.24V.21h7.6V1.74H151V9.63h4.57v1.46H151v8.67h5.66v1.48Z"/><path class="cls-1" d="M165.63,21.24V.21h4.57a6.52,6.52,0,0,1,3.44.76,4.23,4.23,0,0,1,1.75,2.17,9.27,9.27,0,0,1,.52,3.25v8.36a10.1,10.1,0,0,1-.52,3.41,4.44,4.44,0,0,1-1.71,2.27,5.84,5.84,0,0,1-3.3.81Zm2-1.48h2.65a3.61,3.61,0,0,0,2.44-.69,3.16,3.16,0,0,0,1-1.89,16.22,16.22,0,0,0,.2-2.74V6.6a11.21,11.21,0,0,0-.27-2.67,2.72,2.72,0,0,0-1.06-1.63,4.16,4.16,0,0,0-2.38-.56H167.6Z"/><path class="cls-1" d="M199.1,21a5.14,5.14,0,0,1-2.35-1.61,4.11,4.11,0,0,1-.9-2.72A3.92,3.92,0,0,1,197,13.71a13.88,13.88,0,0,1,3.34-2.29A14.54,14.54,0,0,1,199.55,9a9.63,9.63,0,0,1-.32-2.31A4.89,4.89,0,0,1,200,4a4.91,4.91,0,0,1,2-1.77,6.59,6.59,0,0,1,2.89-.62,4.08,4.08,0,0,1,3.1,1,3.54,3.54,0,0,1,1,2.52,3.85,3.85,0,0,1-.77,2.35,7.39,7.39,0,0,1-1.86,1.75c-.72.48-1.72,1.06-3,1.74l-.78.41a30,30,0,0,0,2.54,3.9A24.34,24.34,0,0,0,208,18.49a6.19,6.19,0,0,0,1.27-4.21,4.75,4.75,0,0,0-.31-1.71,9.1,9.1,0,0,0-.91,0,3.76,3.76,0,0,0-1,.13,2.46,2.46,0,0,0-.74.29V11.5a2,2,0,0,1,.66-.39,3,3,0,0,1,1.11-.18,11.9,11.9,0,0,1,1.61.16,10.18,10.18,0,0,0,1.76.18,2.44,2.44,0,0,0,1.66-.47,2.71,2.71,0,0,0,.7-1.66h.84a5.38,5.38,0,0,1-.65,2.8,2.27,2.27,0,0,1-2.05,1c-.23,0-.55,0-1-.05a5.08,5.08,0,0,1,.11,1,7.48,7.48,0,0,1-.59,3,6.7,6.7,0,0,1-1.67,2.34,4.62,4.62,0,0,0,1.64.83,5,5,0,0,0,2.05.28l-.08.91a8,8,0,0,1-1.13.24c-.32,0-.67.05-1.05.05a4.62,4.62,0,0,1-3.12-1.14,10.5,10.5,0,0,1-4.88,1.11A9.32,9.32,0,0,1,199.1,21Zm7.24-1.32a23,23,0,0,1-3-3.27q-1.12-1.59-2.53-4a8.32,8.32,0,0,0-2.15,1.89,3.63,3.63,0,0,0-.76,2.29,3.33,3.33,0,0,0,1.24,2.76,5.17,5.17,0,0,0,3.31,1A9.35,9.35,0,0,0,206.34,19.63Zm-1.7-10.52a6,6,0,0,0,1.65-1.61,3.65,3.65,0,0,0,.65-2.13,3.34,3.34,0,0,0-.53-1.9,2,2,0,0,0-1.81-.8,3.28,3.28,0,0,0-2.53,1,3.77,3.77,0,0,0-.95,2.66,9.1,9.1,0,0,0,.29,2.26,9.61,9.61,0,0,0,.7,2A24.72,24.72,0,0,0,204.64,9.11Z"/><path class="cls-1" d="M229.09,21.24V.21h4.51A7.1,7.1,0,0,1,236,.57a3.67,3.67,0,0,1,1.58,1.07,4.23,4.23,0,0,1,.87,1.67,8.07,8.07,0,0,1,0,4.1A4,4,0,0,1,237.68,9a2.78,2.78,0,0,1-1.61.87A3.81,3.81,0,0,1,238,11.05a4.68,4.68,0,0,1,1,1.89,9.12,9.12,0,0,1,.27,2.22,12.51,12.51,0,0,1-.22,2.35,5.42,5.42,0,0,1-.78,1.94,3.89,3.89,0,0,1-1.52,1.31,5.44,5.44,0,0,1-2.44.48Zm2-12h2.86a3.13,3.13,0,0,0,1.87-.48,2.49,2.49,0,0,0,.9-1.32,6.74,6.74,0,0,0,.26-2,5.29,5.29,0,0,0-.35-2.1,2.27,2.27,0,0,0-1.2-1.22,6.21,6.21,0,0,0-2.47-.39h-1.87Zm0,10.49h2.83a3,3,0,0,0,2.74-1.12,6.78,6.78,0,0,0,.69-3.48A7.81,7.81,0,0,0,237,12.9,3,3,0,0,0,236,11.36a3.26,3.26,0,0,0-2-.56h-2.88Z"/><path class="cls-1" d="M248.4,21.24V.21h2v21Z"/><path class="cls-1" d="M264.81,21.5a5.18,5.18,0,0,1-2.84-.72,4.42,4.42,0,0,1-1.7-2,8.94,8.94,0,0,1-.7-3l1.74-.52a10.74,10.74,0,0,0,.47,2.35,3.44,3.44,0,0,0,1.06,1.66,3,3,0,0,0,2,.61,3.06,3.06,0,0,0,2.18-.73,3,3,0,0,0,.78-2.31,4.17,4.17,0,0,0-.69-2.41,12.93,12.93,0,0,0-1.88-2.13l-3.71-3.56a6.55,6.55,0,0,1-1.46-2,5.35,5.35,0,0,1-.47-2.24,4.29,4.29,0,0,1,1.3-3.35A5,5,0,0,1,264.35,0a6.64,6.64,0,0,1,2,.29,3.62,3.62,0,0,1,1.53.92,4.34,4.34,0,0,1,1,1.65,9.71,9.71,0,0,1,.49,2.46l-1.68.44a9.65,9.65,0,0,0-.43-2.27,2.87,2.87,0,0,0-1-1.44,3.18,3.18,0,0,0-1.9-.49,3.25,3.25,0,0,0-2.13.67,2.54,2.54,0,0,0-.83,2.11,3.55,3.55,0,0,0,.32,1.55,5.31,5.31,0,0,0,1.16,1.51l3.71,3.51a13,13,0,0,1,2.15,2.59,5.84,5.84,0,0,1,.91,3.22,5.22,5.22,0,0,1-.61,2.65,3.87,3.87,0,0,1-1.7,1.6A5.76,5.76,0,0,1,264.81,21.5Z"/><path class="cls-1" d="M283.4,21.5a5.36,5.36,0,0,1-3.28-.88,4.54,4.54,0,0,1-1.6-2.38,11.78,11.78,0,0,1-.44-3.31V6.57a11.48,11.48,0,0,1,.46-3.43A4.23,4.23,0,0,1,280.16.83,5.55,5.55,0,0,1,283.4,0a5.23,5.23,0,0,1,3,.73,4,4,0,0,1,1.54,2.06A9.69,9.69,0,0,1,288.39,6V7.24h-1.87V6a10.83,10.83,0,0,0-.22-2.36,2.63,2.63,0,0,0-.9-1.53,3.08,3.08,0,0,0-2-.55,3.31,3.31,0,0,0-2.14.59,2.85,2.85,0,0,0-1,1.65,10.65,10.65,0,0,0-.25,2.46v9a9.52,9.52,0,0,0,.3,2.6,2.83,2.83,0,0,0,1,1.56,3.5,3.5,0,0,0,2,.52,3,3,0,0,0,2-.58,2.83,2.83,0,0,0,.88-1.59,11.41,11.41,0,0,0,.22-2.4V14h1.87v1.25a11.08,11.08,0,0,1-.43,3.25,4.17,4.17,0,0,1-1.51,2.22A5,5,0,0,1,283.4,21.5Z"/><path class="cls-1" d="M302.85,21.5a6.07,6.07,0,0,1-3.31-.77,3.85,3.85,0,0,1-1.62-2.13,9.88,9.88,0,0,1-.44-3.1V.21h1.92V15.55a8.44,8.44,0,0,0,.27,2.22,2.78,2.78,0,0,0,1,1.57,3.5,3.5,0,0,0,2.15.58,3.34,3.34,0,0,0,2.1-.59A3,3,0,0,0,306,17.76a7.94,7.94,0,0,0,.29-2.21V.21h1.9V15.5a9.57,9.57,0,0,1-.47,3.1,4,4,0,0,1-1.63,2.13A5.89,5.89,0,0,1,302.85,21.5Z"/><path class="cls-1" d="M317.94,21.24V.21h2v21Z"/><path class="cls-1" d="M332.48,21.24V1.74h-4V.21h9.82V1.74h-3.87v19.5Z"/></g></g></svg>