<svg xmlns="http://www.w3.org/2000/svg" viewBox="0 0 338.32 148.7"><defs><style>.cls-1{fill:#3e403c;}.cls-2{fill:#a3bca3;}</style></defs><g id="Layer_2" data-name="Layer 2"><g id="Layer_1-2" data-name="Layer 1"><path class="cls-1" d="M4,148.44v-19.5H0v-1.53H9.81v1.53H6v19.5Z"/><path class="cls-1" d="M18.33,148.44v-21h7.61v1.53H20.33v7.9H24.9v1.45H20.33V147H26v1.48Z"/><path class="cls-1" d="M34.92,148.44v-21h2V147h6v1.48Z"/><path class="cls-1" d="M51.07,148.44v-21h2V147h6v1.48Z"/><path class="cls-1" d="M67.27,148.44v-21h2v21Z"/><path class="cls-1" d="M84.1,148.7a5.32,5.32,0,0,1-3.29-.88,4.47,4.47,0,0,1-1.59-2.38,11.38,11.38,0,0,1-.44-3.31v-8.36a11.76,11.76,0,0,1,.45-3.42A4.23,4.23,0,0,1,80.85,128a5.48,5.48,0,0,1,3.25-.84,5.3,5.3,0,0,1,3,.73A4,4,0,0,1,88.62,130a9.7,9.7,0,0,1,.46,3.18v1.27H87.21v-1.22a10.7,10.7,0,0,0-.22-2.36,2.62,2.62,0,0,0-.89-1.54,3.12,3.12,0,0,0-2-.54,3.33,3.33,0,0,0-2.14.58A3,3,0,0,0,81,131a11.3,11.3,0,0,0-.24,2.47v9a9.54,9.54,0,0,0,.29,2.59,2.75,2.75,0,0,0,1,1.56,3.39,3.39,0,0,0,2,.52,3,3,0,0,0,2-.57A2.77,2.77,0,0,0,87,145a11.28,11.28,0,0,0,.22-2.4v-1.38h1.87v1.25a11.46,11.46,0,0,1-.42,3.26,4.25,4.25,0,0,1-1.51,2.22A5,5,0,0,1,84.1,148.7Z"/><path class="cls-1" d="M103.39,148.7a5.72,5.72,0,0,1-3.28-.81,4.35,4.35,0,0,1-1.67-2.29,10.81,10.81,0,0,1-.48-3.36v-8.73a9.8,9.8,0,0,1,.51-3.33,4.26,4.26,0,0,1,1.69-2.2,7,7,0,0,1,6.44,0,4.23,4.23,0,0,1,1.67,2.2,10.06,10.06,0,0,1,.5,3.33v8.75a10.54,10.54,0,0,1-.49,3.34,4.38,4.38,0,0,1-1.64,2.27A5.49,5.49,0,0,1,103.39,148.7Zm0-1.58a3.39,3.39,0,0,0,2.1-.56,2.78,2.78,0,0,0,1-1.56,8.88,8.88,0,0,0,.28-2.32v-9.53a8.8,8.8,0,0,0-.28-2.31,2.68,2.68,0,0,0-1-1.52,3.54,3.54,0,0,0-2.1-.53,3.67,3.67,0,0,0-2.14.53,2.69,2.69,0,0,0-1,1.52,8.4,8.4,0,0,0-.28,2.31v9.53a8.47,8.47,0,0,0,.28,2.32,2.8,2.8,0,0,0,1,1.56A3.52,3.52,0,0,0,103.39,147.12Z"/><path class="cls-1" d="M129.8,148.44v-21h4.51a6.84,6.84,0,0,1,2.42.37,3.65,3.65,0,0,1,1.58,1.06,4.37,4.37,0,0,1,.87,1.67,8.1,8.1,0,0,1,0,4.11,4,4,0,0,1-.82,1.61,2.78,2.78,0,0,1-1.61.87,3.75,3.75,0,0,1,1.92,1.15,4.72,4.72,0,0,1,1,1.9,9.12,9.12,0,0,1,.27,2.22,12.59,12.59,0,0,1-.22,2.35,5.37,5.37,0,0,1-.78,1.93,3.81,3.81,0,0,1-1.52,1.31,5.44,5.44,0,0,1-2.44.48Zm2-12h2.86a3.13,3.13,0,0,0,1.87-.48,2.49,2.49,0,0,0,.9-1.32,6.63,6.63,0,0,0,.26-2,5.38,5.38,0,0,0-.35-2.11,2.27,2.27,0,0,0-1.2-1.22,6.21,6.21,0,0,0-2.47-.39h-1.87Zm0,10.49h2.83a3,3,0,0,0,2.74-1.11,6.83,6.83,0,0,0,.69-3.48,7.77,7.77,0,0,0-.31-2.26,3,3,0,0,0-1.06-1.55,3.26,3.26,0,0,0-2-.55h-2.88Z"/><path class="cls-1" d="M149,148.44v-21h7.6v1.53H151v7.9h4.57v1.45H151V147h5.66v1.48Z"/><path class="cls-1" d="M165.63,148.44v-21h4.57a6.52,6.52,0,0,1,3.44.77,4.19,4.19,0,0,1,1.75,2.17,9.18,9.18,0,0,1,.52,3.24V142a10.16,10.16,0,0,1-.52,3.42,4.48,4.48,0,0,1-1.71,2.27,5.84,5.84,0,0,1-3.3.8Zm2-1.48h2.65a3.66,3.66,0,0,0,2.44-.68,3.18,3.18,0,0,0,1-1.9,16.14,16.14,0,0,0,.2-2.74V133.8a11.12,11.12,0,0,0-.27-2.66,2.71,2.71,0,0,0-1.06-1.64,4.16,4.16,0,0,0-2.38-.56H167.6Z"/><path class="cls-1" d="M199.1,148.16a5.22,5.22,0,0,1-2.35-1.61,4.16,4.16,0,0,1-.9-2.73,3.92,3.92,0,0,1,1.18-2.91,13.88,13.88,0,0,1,3.34-2.28,15.18,15.18,0,0,1-.82-2.44,9.63,9.63,0,0,1-.32-2.31,4.93,4.93,0,0,1,.72-2.68,4.81,4.81,0,0,1,2-1.76,6.46,6.46,0,0,1,2.89-.63,4.08,4.08,0,0,1,3.1,1,3.56,3.56,0,0,1,1,2.52,3.83,3.83,0,0,1-.77,2.35,7.22,7.22,0,0,1-1.86,1.75,33.5,33.5,0,0,1-3,1.74l-.78.42a30.62,30.62,0,0,0,2.54,3.89,23.71,23.71,0,0,0,2.91,3.17,6.18,6.18,0,0,0,1.27-4.2,4.84,4.84,0,0,0-.31-1.72c-.17,0-.47,0-.91,0a3.76,3.76,0,0,0-1,.13,2.49,2.49,0,0,0-.74.28v-1.45a2,2,0,0,1,.66-.39,3,3,0,0,1,1.11-.18,13.29,13.29,0,0,1,1.61.15,10.18,10.18,0,0,0,1.76.18,2.44,2.44,0,0,0,1.66-.46,2.77,2.77,0,0,0,.7-1.67h.84a5.42,5.42,0,0,1-.65,2.81,2.27,2.27,0,0,1-2.05,1c-.23,0-.55,0-1-.05a4.9,4.9,0,0,1,.11,1,7.53,7.53,0,0,1-.59,3,6.57,6.57,0,0,1-1.67,2.33,4.62,4.62,0,0,0,1.64.83,5,5,0,0,0,2.05.29l-.08.91a6.66,6.66,0,0,1-1.13.23,8.6,8.6,0,0,1-1.05,0,4.62,4.62,0,0,1-3.12-1.14,10.38,10.38,0,0,1-4.88,1.12A9.57,9.57,0,0,1,199.1,148.16Zm7.24-1.33a22,22,0,0,1-3-3.27c-.75-1.05-1.59-2.38-2.53-4a8.53,8.53,0,0,0-2.15,1.9,3.58,3.58,0,0,0-.76,2.28,3.35,3.35,0,0,0,1.24,2.77,5.23,5.23,0,0,0,3.31,1A9.33,9.33,0,0,0,206.34,146.83Zm-1.7-10.51a6.18,6.18,0,0,0,1.65-1.61,3.65,3.65,0,0,0,.65-2.13,3.4,3.4,0,0,0-.53-1.91,2,2,0,0,0-1.81-.79,3.28,3.28,0,0,0-2.53,1,3.81,3.81,0,0,0-.95,2.67,9,9,0,0,0,.29,2.25,9.39,9.39,0,0,0,.7,2A24.85,24.85,0,0,0,204.64,136.32Z"/><path class="cls-1" d="M229.09,148.44v-21h4.51a6.84,6.84,0,0,1,2.42.37,3.65,3.65,0,0,1,1.58,1.06,4.37,4.37,0,0,1,.87,1.67,8.1,8.1,0,0,1,0,4.11,4,4,0,0,1-.82,1.61,2.78,2.78,0,0,1-1.61.87,3.79,3.79,0,0,1,1.92,1.15,4.72,4.72,0,0,1,1,1.9,9.12,9.12,0,0,1,.27,2.22,12.59,12.59,0,0,1-.22,2.35,5.37,5.37,0,0,1-.78,1.93,3.81,3.81,0,0,1-1.52,1.31,5.44,5.44,0,0,1-2.44.48Zm2-12h2.86a3.13,3.13,0,0,0,1.87-.48,2.49,2.49,0,0,0,.9-1.32,6.63,6.63,0,0,0,.26-2,5.38,5.38,0,0,0-.35-2.11,2.27,2.27,0,0,0-1.2-1.22,6.21,6.21,0,0,0-2.47-.39h-1.87Zm0,10.49h2.83a3,3,0,0,0,2.74-1.11,6.83,6.83,0,0,0,.69-3.48,7.77,7.77,0,0,0-.31-2.26,3,3,0,0,0-1.06-1.55,3.26,3.26,0,0,0-2-.55h-2.88Z"/><path class="cls-1" d="M248.4,148.44v-21h2v21Z"/><path class="cls-1" d="M264.81,148.7A5.18,5.18,0,0,1,262,148a4.45,4.45,0,0,1-1.7-2,8.94,8.94,0,0,1-.7-3l1.74-.52a10.63,10.63,0,0,0,.47,2.35,3.39,3.39,0,0,0,1.06,1.66,3,3,0,0,0,2,.61,3.1,3.1,0,0,0,2.18-.72,3,3,0,0,0,.78-2.31,4.2,4.2,0,0,0-.69-2.42,13.8,13.8,0,0,0-1.88-2.13L261.52,136a6.64,6.64,0,0,1-1.46-2,5.4,5.4,0,0,1-.47-2.25,4.3,4.3,0,0,1,1.3-3.35,5,5,0,0,1,3.46-1.17,6.64,6.64,0,0,1,2,.29,3.72,3.72,0,0,1,1.53.92,4.5,4.5,0,0,1,1,1.65,9.89,9.89,0,0,1,.49,2.47l-1.68.44a9.65,9.65,0,0,0-.43-2.27,2.79,2.79,0,0,0-1-1.44,3.18,3.18,0,0,0-1.9-.5,3.26,3.26,0,0,0-2.13.68,2.53,2.53,0,0,0-.83,2.1,3.63,3.63,0,0,0,.32,1.56,5.15,5.15,0,0,0,1.16,1.5l3.71,3.51a13.05,13.05,0,0,1,2.15,2.6,5.82,5.82,0,0,1,.91,3.22,5.21,5.21,0,0,1-.61,2.64,3.81,3.81,0,0,1-1.7,1.6A5.63,5.63,0,0,1,264.81,148.7Z"/><path class="cls-1" d="M283.4,148.7a5.29,5.29,0,0,1-3.28-.88,4.54,4.54,0,0,1-1.6-2.38,11.73,11.73,0,0,1-.44-3.31v-8.36a11.42,11.42,0,0,1,.46-3.42,4.23,4.23,0,0,1,1.62-2.31,5.47,5.47,0,0,1,3.24-.84,5.31,5.31,0,0,1,3,.73,4,4,0,0,1,1.54,2.07,9.69,9.69,0,0,1,.47,3.18v1.27h-1.87v-1.22a10.7,10.7,0,0,0-.22-2.36,2.69,2.69,0,0,0-.9-1.54,3.08,3.08,0,0,0-2-.54,3.31,3.31,0,0,0-2.14.58,2.85,2.85,0,0,0-1,1.65,10.68,10.68,0,0,0-.25,2.47v9a9.5,9.5,0,0,0,.3,2.59,2.79,2.79,0,0,0,1,1.56,3.43,3.43,0,0,0,2,.52,3,3,0,0,0,2-.57,2.82,2.82,0,0,0,.88-1.6,11.28,11.28,0,0,0,.22-2.4v-1.38h1.87v1.25a11.1,11.1,0,0,1-.43,3.26,4.25,4.25,0,0,1-1.51,2.22A5,5,0,0,1,283.4,148.7Z"/><path class="cls-1" d="M302.85,148.7a6.07,6.07,0,0,1-3.31-.76,3.85,3.85,0,0,1-1.62-2.13,9.88,9.88,0,0,1-.44-3.1v-15.3h1.92v15.35a8.55,8.55,0,0,0,.27,2.22,2.82,2.82,0,0,0,1,1.57,3.51,3.51,0,0,0,2.15.57,3.4,3.4,0,0,0,2.1-.58A3,3,0,0,0,306,145a7.87,7.87,0,0,0,.29-2.2V127.41h1.9v15.3a9.57,9.57,0,0,1-.47,3.1,4,4,0,0,1-1.63,2.13A5.9,5.9,0,0,1,302.85,148.7Z"/><path class="cls-1" d="M317.94,148.44v-21h2v21Z"/><path class="cls-1" d="M332.48,148.44v-19.5h-4v-1.53h9.82v1.53h-3.87v19.5Z"/><polygon class="cls-2" points="244.38 100.2 184.59 100.2 184.59 96.19 194.84 95.26 232.81 95.26 244.38 96.19 244.38 100.2"/><path class="cls-1" d="M35.85,9.84l-19.27.67L11.32,39.89H0L2.29.94H89.21l1.62,39H80.18L74.93,10.51l-19-.67v81.8L74.79,93v8.08H18.6V93l17.25-1.35Z"/><path class="cls-1" d="M103.72,11.05,93.21,9.3V.94h20.08q4.59,0,11.86-.54c1.17-.08,2.56-.18,4.18-.26S132.83,0,135,0q20.34,0,28.5,5.73t8.15,17q0,10-6,16.65A25.61,25.61,0,0,1,150,47.57q13.34-.14,21,6.07t7.62,17.24q0,14-9.84,22.51t-32.88,8.49c-4.05,0-7.78-.14-11.19-.4-.9,0-2.42-.07-4.58-.21s-4.36-.2-6.6-.2H93.08V93l10.64-1.35Zm25.61,33.69h6.33q8.22,0,12.27-5.12t4-14.42q0-8.89-4.18-12.94t-13.88-4q-2.57,0-10.65.54V44.61Q124.75,44.75,129.33,44.74Zm5.79,48.65q11.46,0,16.58-5.39t5.12-15.63q0-9.84-4.65-14.09T137.41,54q-11.31,0-14.15.27V92.18Q126.37,93.39,135.12,93.39Z"/><path class="cls-1" d="M263.53,11.05,253,9.3V.94h20.07Q277.68.94,285,.4c1.17-.08,2.56-.18,4.18-.26s3.5-.14,5.66-.14q20.35,0,28.5,5.73t8.16,17q0,10-6,16.65a25.61,25.61,0,0,1-15.7,8.15q13.33-.14,21,6.07t7.61,17.24q0,14-9.84,22.51t-32.88,8.49c-4,0-7.77-.14-11.19-.4-.9,0-2.42-.07-4.58-.21s-4.36-.2-6.6-.2H252.88V93l10.65-1.35Zm25.6,33.69h6.33q8.22,0,12.27-5.12t4-14.42q0-8.89-4.18-12.94t-13.88-4q-2.55,0-10.64.54V44.61C284.05,44.7,286.08,44.74,289.13,44.74Zm5.8,48.65q11.44,0,16.57-5.39t5.12-15.63q0-9.84-4.65-14.09T297.22,54q-11.33,0-14.15.27V92.18Q286.16,93.39,294.93,93.39Z"/><path class="cls-2" d="M195.84,83.44a19.77,19.77,0,0,1-8.84-6,15.64,15.64,0,0,1-3.37-10.25,14.71,14.71,0,0,1,4.45-10.93,51.63,51.63,0,0,1,12.54-8.6,54.18,54.18,0,0,1-3.07-9.17,36.88,36.88,0,0,1-1.22-8.69,18.37,18.37,0,0,1,2.73-10.06,18.18,18.18,0,0,1,7.56-6.64,24.69,24.69,0,0,1,10.89-2.34q8,0,11.67,3.91a13.34,13.34,0,0,1,3.66,9.47A14.36,14.36,0,0,1,230,32.92a28.09,28.09,0,0,1-7,6.59q-4.11,2.73-11.23,6.54l-2.93,1.56a112.57,112.57,0,0,0,9.57,14.65,88.74,88.74,0,0,0,10.93,11.91q4.78-5.48,4.79-15.82a18,18,0,0,0-1.18-6.44c-.65-.06-1.79-.1-3.41-.1a15,15,0,0,0-3.66.49,9.76,9.76,0,0,0-2.79,1.07V47.91a7.54,7.54,0,0,1,2.49-1.47,11.34,11.34,0,0,1,4.15-.68,46.27,46.27,0,0,1,6.06.59,38.66,38.66,0,0,0,6.63.68q4.31,0,6.25-1.76T251.29,39h3.12Q254.32,46,252,49.57t-7.71,3.61c-.85,0-2-.06-3.61-.2a19,19,0,0,1,.39,3.71A28.17,28.17,0,0,1,238.84,68a25.08,25.08,0,0,1-6.3,8.78,17.74,17.74,0,0,0,6.15,3.13A19.36,19.36,0,0,0,246.41,81l-.3,3.42a27.28,27.28,0,0,1-4.24.88,37.28,37.28,0,0,1-4,.19A17.37,17.37,0,0,1,226.2,81.2a39.3,39.3,0,0,1-18.36,4.2A35.45,35.45,0,0,1,195.84,83.44Zm27.23-5A83.21,83.21,0,0,1,212,66.16q-4.25-6-9.51-14.93a31.91,31.91,0,0,0-8.11,7.12,13.77,13.77,0,0,0-2.83,8.59q0,6.75,4.64,10.4T208.63,81Q217.51,81,223.07,78.46Zm-6.39-39.53a23.55,23.55,0,0,0,6.2-6.06,13.66,13.66,0,0,0,2.44-8,12.62,12.62,0,0,0-2-7.18c-1.34-2-3.6-3-6.79-3A12.31,12.31,0,0,0,207,18.57a14.15,14.15,0,0,0-3.57,10,34,34,0,0,0,1.08,8.49,36.4,36.4,0,0,0,2.63,7.32A91.42,91.42,0,0,0,216.68,38.93Z"/></g></g></svg>